<?xml version="1.0" standalone="no"?><svg xmlns="http://www.w3.org/2000/svg" viewBox="0 0 1440 320"><path fill="#08546C" fill-opacity="1" d="M0,128L40,128C80,128,160,128,240,154.7C320,181,400,235,480,240C560,245,640,203,720,160C800,117,880,75,960,96C1040,117,1120,203,1200,229.3C1280,256,1360,224,1400,208L1440,192L1440,320L1400,320C1360,320,1280,320,1200,320C1120,320,1040,320,960,320C880,320,800,320,720,320C640,320,560,320,480,320C400,320,320,320,240,320C160,320,80,320,40,320L0,320Z"></path></svg>