<?xml version="1.0" standalone="no"?><svg xmlns="http://www.w3.org/2000/svg" viewBox="0 0 1440 320"><path fill="#022534" fill-opacity="1" d="M0,32L30,64C60,96,120,160,180,186.7C240,213,300,203,360,176C420,149,480,107,540,90.7C600,75,660,85,720,112C780,139,840,181,900,176C960,171,1020,117,1080,90.7C1140,64,1200,64,1260,53.3C1320,43,1380,21,1410,10.7L1440,0L1440,320L1410,320C1380,320,1320,320,1260,320C1200,320,1140,320,1080,320C1020,320,960,320,900,320C840,320,780,320,720,320C660,320,600,320,540,320C480,320,420,320,360,320C300,320,240,320,180,320C120,320,60,320,30,320L0,320Z"></path></svg>